<svg xmlns="http://www.w3.org/2000/svg" version="1.1" xmlns:xlink="http://www.w3.org/1999/xlink" xmlns:svgjs="http://svgjs.com/svgjs" width="1440" height="560" preserveAspectRatio="none" viewBox="0 0 1440 560"><g mask="url(&quot;#SvgjsMask1092&quot;)" fill="none"><rect width="1440" height="560" x="0" y="0" fill="rgba(189, 198, 207, 1)"></rect><rect width="312" height="312" clip-path="url(&quot;#SvgjsClipPath1093&quot;)" x="638.86" y="255.44" fill="url(#SvgjsPattern1094)" transform="rotate(289.97, 794.86, 411.44)"></rect><rect width="144" height="144" clip-path="url(&quot;#SvgjsClipPath1095&quot;)" x="5.13" y="429.14" fill="url(#SvgjsPattern1096)" transform="rotate(340.38, 77.13, 501.14)"></rect><rect width="341.59999999999997" height="341.59999999999997" clip-path="url(&quot;#SvgjsClipPath1097&quot;)" x="-15.51" y="220.44" fill="url(#SvgjsPattern1098)" transform="rotate(255.2, 155.29, 391.24)"></rect><path d="M23.45 526.18a5.6 5.6 0 1 0-11.04-1.88 5.6 5.6 0 1 0 11.04 1.88zM7.68 523.49a5.6 5.6 0 1 0-11.04-1.88 5.6 5.6 0 1 0 11.04 1.88zM-8.1 520.8a5.6 5.6 0 1 0-11.04-1.88 5.6 5.6 0 1 0 11.04 1.88zM-23.87 518.11a5.6 5.6 0 1 0-11.04-1.88 5.6 5.6 0 1 0 11.04 1.88zM57.68 515.78a5.6 5.6 0 1 0-11.04-1.88 5.6 5.6 0 1 0 11.04 1.88zM41.91 513.09a5.6 5.6 0 1 0-11.04-1.88 5.6 5.6 0 1 0 11.04 1.88zM26.14 510.4a5.6 5.6 0 1 0-11.04-1.88 5.6 5.6 0 1 0 11.04 1.88zM10.36 507.72a5.6 5.6 0 1 0-11.04-1.88 5.6 5.6 0 1 0 11.04 1.88z" fill="#e73635"></path><rect width="364" height="364" clip-path="url(&quot;#SvgjsClipPath1099&quot;)" x="515.11" y="-166.94" fill="url(#SvgjsPattern1100)" transform="rotate(345.12, 697.11, 15.06)"></rect><path d="M434.06 97.73L438.46 85.71 451.15 87.36 455.55 75.33 468.25 76.98 472.65 64.95 485.35 66.61" stroke="#e73635" stroke-width="1.19" stroke-dasharray="2, 2"></path><rect width="239.2" height="239.2" clip-path="url(&quot;#SvgjsClipPath1101&quot;)" x="319.88" y="166.25" fill="url(#SvgjsPattern1102)" transform="rotate(68.88, 439.48, 285.85)"></rect><rect width="84" height="84" clip-path="url(&quot;#SvgjsClipPath1103&quot;)" x="747.31" y="-0.52" fill="url(#SvgjsPattern1104)" transform="rotate(185.18, 789.31, 41.48)"></rect><path d="M1122.8899999999999 673.6 L1132.01 639.08L1105.6869496563238 634.5769496563239z" fill="#e73635"></path><rect width="60" height="60" clip-path="url(&quot;#SvgjsClipPath1105&quot;)" x="40.17" y="39.98" fill="url(#SvgjsPattern1106)" transform="rotate(46.64, 70.17, 69.98)"></rect><circle r="46.666666666666664" cx="229.66" cy="59.81" stroke="#e73635" stroke-width="1" stroke-dasharray="4, 4"></circle><path d="M704.59 348.91L715.14 341.65 724.54 350.35 735.09 343.09 744.49 351.79 755.04 344.54 764.43 353.24" stroke="#e73635" stroke-width="1.76" stroke-dasharray="2, 2"></path></g><defs><mask id="SvgjsMask1092"><rect width="1440" height="560" fill="#ffffff"></rect></mask><pattern x="0" y="0" width="6" height="6" patternUnits="userSpaceOnUse" id="SvgjsPattern1094"><path d="M3 1L3 5M1 3L5 3" stroke="#037b0b" fill="none" stroke-width="1"></path></pattern><clipPath id="SvgjsClipPath1093"><circle r="78" cx="794.86" cy="411.44"></circle></clipPath><pattern x="0" y="0" width="144" height="6" patternUnits="userSpaceOnUse" id="SvgjsPattern1096"><rect width="144" height="3" x="0" y="0" fill="#037b0b"></rect><rect width="144" height="3" x="0" y="3" fill="rgba(0, 0, 0, 0)"></rect></pattern><clipPath id="SvgjsClipPath1095"><circle r="36" cx="77.13" cy="501.14"></circle></clipPath><pattern x="0" y="0" width="12.2" height="12.2" patternUnits="userSpaceOnUse" id="SvgjsPattern1098"><path d="M0 12.2L6.1 0L12.2 12.2" stroke="#e73635" fill="none"></path></pattern><clipPath id="SvgjsClipPath1097"><circle r="85.39999999999999" cx="155.29" cy="391.24"></circle></clipPath><pattern x="0" y="0" width="13" height="13" patternUnits="userSpaceOnUse" id="SvgjsPattern1100"><path d="M6.5 1L6.5 12M1 6.5L12 6.5" stroke="#d3b714" fill="none" stroke-width="1.34"></path></pattern><clipPath id="SvgjsClipPath1099"><circle r="91" cx="697.11" cy="15.06"></circle></clipPath><pattern x="0" y="0" width="9.2" height="9.2" patternUnits="userSpaceOnUse" id="SvgjsPattern1102"><path d="M0 9.2L4.6 0L9.2 9.2" stroke="#d3b714" fill="none"></path></pattern><clipPath id="SvgjsClipPath1101"><circle r="59.8" cx="439.48" cy="285.85"></circle></clipPath><pattern x="0" y="0" width="6" height="6" patternUnits="userSpaceOnUse" id="SvgjsPattern1104"><path d="M3 1L3 5M1 3L5 3" stroke="#d3b714" fill="none" stroke-width="1"></path></pattern><clipPath id="SvgjsClipPath1103"><circle r="21" cx="789.31" cy="41.48"></circle></clipPath><pattern x="0" y="0" width="60" height="6" patternUnits="userSpaceOnUse" id="SvgjsPattern1106"><rect width="60" height="3" x="0" y="0" fill="#d3b714"></rect><rect width="60" height="3" x="0" y="3" fill="rgba(0, 0, 0, 0)"></rect></pattern><clipPath id="SvgjsClipPath1105"><circle r="15" cx="70.17" cy="69.98"></circle></clipPath></defs></svg>