<svg xmlns="http://www.w3.org/2000/svg" version="1.1" xmlns:xlink="http://www.w3.org/1999/xlink" xmlns:svgjs="http://svgjs.com/svgjs" width="1440" height="560" preserveAspectRatio="none" viewBox="0 0 1440 560"><g mask="url(&quot;#SvgjsMask1000&quot;)" fill="none"><rect width="1440" height="560" x="0" y="0" fill="#0e2a47"></rect><path d="M 0,175 C 57.6,140 172.8,-20 288,0 C 403.2,20 460.8,273.4 576,275 C 691.2,276.6 748.8,31.8 864,8 C 979.2,-15.8 1036.8,132.4 1152,156 C 1267.2,179.6 1382.4,132 1440,126L1440 560L0 560z" fill="#184a7e"></path><path d="M 0,460 C 96,425.2 288,275.6 480,286 C 672,296.4 768,491.2 960,512 C 1152,532.8 1344,414.4 1440,390L1440 560L0 560z" fill="#2264ab"></path></g><defs><mask id="SvgjsMask1000"><rect width="1440" height="560" fill="#ffffff"></rect></mask></defs></svg>