<svg xmlns="http://www.w3.org/2000/svg" version="1.1" xmlns:xlink="http://www.w3.org/1999/xlink" xmlns:svgjs="http://svgjs.com/svgjs" width="1440" height="560" preserveAspectRatio="none" viewBox="0 0 1440 560"><g mask="url(&quot;#SvgjsMask1543&quot;)" fill="none"><rect width="1440" height="560" x="0" y="0" fill="url(#SvgjsLinearGradient1544)"></rect><path d="M1440 0L1224.06 0L1440 169.91z" fill="rgba(255, 255, 255, .1)"></path><path d="M1224.06 0L1440 169.91L1440 315.21000000000004L673.5699999999999 0z" fill="rgba(255, 255, 255, .075)"></path><path d="M673.5699999999999 0L1440 315.21000000000004L1440 364.34000000000003L385.0899999999999 0z" fill="rgba(255, 255, 255, .05)"></path><path d="M385.0899999999999 0L1440 364.34000000000003L1440 488.36L367.7999999999999 0z" fill="rgba(255, 255, 255, .025)"></path><path d="M0 560L52.87 560L0 434.87z" fill="rgba(0, 0, 0, .1)"></path><path d="M0 434.87L52.87 560L427.58 560L0 239.73000000000002z" fill="rgba(0, 0, 0, .075)"></path><path d="M0 239.73000000000002L427.58 560L538.52 560L0 104.56000000000003z" fill="rgba(0, 0, 0, .05)"></path><path d="M0 104.56000000000006L538.52 560L1133.69 560L0 51.28000000000006z" fill="rgba(0, 0, 0, .025)"></path></g><defs><mask id="SvgjsMask1543"><rect width="1440" height="560" fill="#ffffff"></rect></mask><linearGradient x1="100%" y1="50%" x2="0%" y2="50%" gradientUnits="userSpaceOnUse" id="SvgjsLinearGradient1544"><stop stop-color="rgba(57, 92, 127, 1)" offset="0"></stop><stop stop-color="rgba(212, 212, 212, 1)" offset="0.37"></stop><stop stop-color="rgba(212, 212, 212, 1)" offset="1"></stop><stop stop-color="rgba(212, 212, 212, 1)" offset="1"></stop></linearGradient></defs></svg>