<svg xmlns="http://www.w3.org/2000/svg" version="1.1" xmlns:xlink="http://www.w3.org/1999/xlink" xmlns:svgjs="http://svgjs.com/svgjs" width="1440" height="560" preserveAspectRatio="none" viewBox="0 0 1440 560"><g mask="url(&quot;#SvgjsMask1107&quot;)" fill="none"><rect width="1440" height="560" x="0" y="0" fill="rgba(245, 245, 245, 1)"></rect><path d="M1464 560L0 560 L0 474.8Q26.84 429.64, 72 456.49Q150.04 414.53, 192 492.58Q287.25 467.83, 312 563.08Q358.84 489.92, 432 536.77Q440.22 424.99, 552 433.2Q664.92 426.12, 672 539.04Q711.88 458.91, 792 498.79Q845.12 431.91, 912 485.03Q966.56 419.58, 1032 474.14Q1049.74 419.88, 1104 437.62Q1193.91 407.53, 1224 497.45Q1263.88 417.34, 1344 457.22Q1397.12 390.34, 1464 443.45z" fill="rgba(60, 198, 176, 1)"></path></g><defs><mask id="SvgjsMask1107"><rect width="1440" height="560" fill="#ffffff"></rect></mask></defs></svg>