<svg xmlns="http://www.w3.org/2000/svg" version="1.1" xmlns:xlink="http://www.w3.org/1999/xlink" xmlns:svgjs="http://svgjs.com/svgjs" width="1440" height="560" preserveAspectRatio="none" viewBox="0 0 1440 560"><g mask="url(&quot;#SvgjsMask1010&quot;)" fill="none"><rect width="1440" height="560" x="0" y="0" fill="rgba(255, 255, 255, 1)"></rect><path d="M667.72 25.33L707.66 25.33L707.66 65.27L667.72 65.27z" stroke="#037b0b"></path><path d="M1253.96 183.76L1278.63 183.76L1278.63 233.67L1253.96 233.67z" fill="#037b0b"></path><path d="M1001.07 428.03L1047.97 428.03L1047.97 454.38L1001.07 454.38z" fill="rgba(83, 175, 188, 1)"></path><path d="M838.83 30.88L888.55 30.88L888.55 80.6L838.83 80.6z" stroke="rgba(83, 175, 188, 1)"></path><path d="M473.89 138.39L508.31 138.39L508.31 172.81L473.89 172.81z" fill="#d3b714"></path><path d="M147.83 260.11L189.38 260.11L189.38 301.66L147.83 301.66z" fill="#d3b714"></path><path d="M1380.43 240.21a4.48 4.48 0 1 0-8.69-2.19z" fill="rgba(83, 175, 188, 1)"></path><path d="M1135.57 16.81L1164.33 16.81L1164.33 35.83L1135.57 35.83z" stroke="#d3b714"></path><path d="M1059.84 439.6L1083.66 439.6L1083.66 444.19L1059.84 444.19z" fill="#d3b714"></path><path d="M1028.7 504.19 a42.25 42.25 0 1 0 84.5 0 a42.25 42.25 0 1 0 -84.5 0z" fill="rgba(83, 175, 188, 1)"></path><path d="M818.91 179.56 a40.5 40.5 0 1 0 81 0 a40.5 40.5 0 1 0 -81 0z" stroke="rgba(83, 175, 188, 1)"></path><path d="M1421.2 497.6 a4.89 4.89 0 1 0 9.78 0 a4.89 4.89 0 1 0 -9.78 0z" fill="#037b0b"></path><path d="M1046.19 426.48L1057.7 426.48L1057.7 437.99L1046.19 437.99z" stroke="#d3b714"></path><path d="M1399.75 286.77L1442.18 286.77L1442.18 301.79L1399.75 301.79z" fill="#d3b714"></path><path d="M11.74 185.66 a10.34 10.34 0 1 0 20.68 0 a10.34 10.34 0 1 0 -20.68 0z" stroke="rgba(83, 175, 188, 1)"></path><path d="M1329.79 249.66 a16.5 16.5 0 1 0 33 0 a16.5 16.5 0 1 0 -33 0z" stroke="rgba(83, 175, 188, 1)"></path><path d="M1025.85 120.46L1061.74 120.46L1061.74 135.15L1025.85 135.15z" fill="#d3b714"></path><path d="M749.42 189.25L759.93 189.25L759.93 192.8L749.42 192.8z" fill="rgba(83, 175, 188, 1)"></path><path d="M978.99 487.39L992.22 487.39L992.22 500.62L978.99 500.62z" stroke="#d3b714"></path><path d="M282.87 338.18L334.11 338.18L334.11 389.42L282.87 389.42z" fill="rgba(83, 175, 188, 1)"></path><path d="M319.46 167.64L369.48 167.64L369.48 182.12L319.46 182.12z" stroke="#d3b714"></path><path d="M373.13 230.97L383.75 230.97L383.75 241.59L373.13 241.59z" fill="rgba(83, 175, 188, 1)"></path><path d="M338.17 478.45 a17.94 17.94 0 1 0 35.88 0 a17.94 17.94 0 1 0 -35.88 0z" fill="#037b0b"></path><path d="M1423.09 400.61 a4.43 4.43 0 1 0 8.86 0 a4.43 4.43 0 1 0 -8.86 0z" fill="#d3b714"></path><path d="M476.09 405.89L521.5 405.89L521.5 451.3L476.09 451.3z" stroke="#037b0b"></path><path d="M1202.67 309.88a50.54 50.54 0 1 0 100.44-11.32z" fill="rgba(83, 175, 188, 1)"></path><path d="M390.52 461.5L398.5 461.5L398.5 508.15L390.52 508.15z" stroke="#d3b714"></path><path d="M1020.66 313.87L1056.81 313.87L1056.81 350.02L1020.66 350.02z" stroke="#037b0b"></path><path d="M589.2 377.37 a13.12 13.12 0 1 0 26.24 0 a13.12 13.12 0 1 0 -26.24 0z" stroke="#037b0b"></path><path d="M228.97 240.87L242.16 240.87L242.16 292.48L228.97 292.48z" stroke="rgba(83, 175, 188, 1)"></path><path d="M102.7 90.58 a11.18 11.18 0 1 0 22.36 0 a11.18 11.18 0 1 0 -22.36 0z" fill="#037b0b"></path><path d="M918.17 365.98L948.99 365.98L948.99 396.8L918.17 396.8z" fill="#037b0b"></path><path d="M173.93 268.35 a28.16 28.16 0 1 0 56.32 0 a28.16 28.16 0 1 0 -56.32 0z" stroke="#d3b714"></path></g><defs><mask id="SvgjsMask1010"><rect width="1440" height="560" fill="#ffffff"></rect></mask></defs></svg>